<?xml version="1.0" encoding="UTF-8"?>
<!DOCTYPE svg PUBLIC "-//W3C//DTD SVG 1.0//EN" "http://www.w3.org/TR/2001/REC-SVG-20010904/DTD/svg10.dtd">
<!-- Creator: CorelDRAW 2020 (64-Bit) -->
<svg xmlns="http://www.w3.org/2000/svg" xml:space="preserve" width="280mm" height="297mm" version="1.0" style="shape-rendering:geometricPrecision; text-rendering:geometricPrecision; image-rendering:optimizeQuality; fill-rule:evenodd; clip-rule:evenodd"
viewBox="0 0 28000 29700"
 xmlns:xlink="http://www.w3.org/1999/xlink"
 xmlns:xodm="http://www.corel.com/coreldraw/odm/2003">
 <defs>
  <style type="text/css">
   <![CDATA[
    .fil0 {fill:#003399}
    .fil1 {fill:#6666CC}
    .fil2 {fill:#9999FF}
    .fil3 {fill:#252262;fill-rule:nonzero}
   ]]>
  </style>
 </defs>
 <g id="Layer_x0020_1">
  <metadata id="CorelCorpID_0Corel-Layer"/>
  <g id="_2123449598384">
   <path class="fil0" d="M5818.94 13552.84l-298.62 -1693.39 -3085.46 645.42c-678.31,141.89 -1100.89,1017.23 -949.12,1954.41l4333.2 -906.44z"/>
   <rect class="fil1" transform="matrix(0.603595 3.42316 -3.36748 0.70442 7816.76 13094.7)" width="635" height="1883.4"/>
   <path class="fil2" d="M3847.88 16148.2l298.62 1693.4 3085.46 -645.43c678.31,-141.89 1100.89,-1017.23 949.12,-1954.4l-4333.2 906.43z"/>
  </g>
  <path class="fil3" d="M10973.57 16855.78c-227.99,0 -420.02,-38.58 -576.1,-115.74 -156.08,-77.17 -273.58,-164.85 -352.5,-263.06 -78.92,-98.21 -118.38,-177.13 -118.38,-236.76 0,-31.56 12.28,-56.99 36.83,-76.28 24.56,-19.29 50.86,-28.94 78.92,-28.94l78.92 0c24.55,0 44.72,4.39 60.5,13.15 15.79,8.77 34.2,27.19 55.24,55.25 77.17,108.73 170.99,193.78 281.48,255.16 110.48,61.38 262.18,92.07 455.09,92.07 217.46,0 392.83,-41.21 526.11,-123.63 133.29,-82.43 199.93,-200.8 199.93,-355.13 0,-94.7 -27.18,-171.87 -81.55,-231.49 -54.36,-59.63 -142.05,-111.37 -263.06,-155.21 -121,-43.84 -300.76,-93.82 -539.27,-149.94 -312.16,-70.15 -525.24,-166.61 -639.23,-289.37 -113.99,-122.76 -170.99,-278.84 -170.99,-468.24 0,-129.78 35.95,-252.54 107.86,-368.28 71.9,-115.75 178.88,-210.45 320.93,-284.11 142.05,-73.65 313.04,-110.48 512.96,-110.48 210.45,0 388.45,35.95 534.01,107.85 145.56,71.91 254.29,155.21 326.19,249.91 71.91,94.7 107.86,171.86 107.86,231.49 0,31.57 -11.4,57 -34.2,76.29 -22.8,19.29 -49.98,28.93 -81.55,28.93l-78.92 0c-49.1,0 -87.68,-22.79 -115.74,-68.39 -70.15,-105.22 -149.95,-185.02 -239.39,-239.38 -89.43,-54.37 -228.86,-81.55 -418.26,-81.55 -203.43,0 -357.76,42.09 -462.98,126.27 -105.22,84.17 -157.84,194.66 -157.84,331.45 0,84.18 21.05,154.33 63.14,210.45 42.09,56.12 121,107.85 236.75,155.2 115.75,47.35 284.1,95.58 505.07,144.68 326.2,73.66 555.93,171.87 689.22,294.63 133.28,122.76 199.92,285.86 199.92,489.29 0,143.8 -40.34,275.33 -121.01,394.59 -80.67,119.25 -199.92,213.95 -357.76,284.1 -157.83,70.15 -347.23,105.22 -568.2,105.22zm2735.81 0c-333.21,0 -601.53,-109.61 -804.96,-328.82 -203.43,-219.22 -319.18,-512.97 -347.24,-881.25l-5.26 -210.44 5.26 -210.45c28.06,-364.78 142.93,-657.65 344.61,-878.62 201.68,-220.97 470.88,-331.45 807.59,-331.45 364.78,0 649.76,121.01 854.94,363.02 205.19,242.01 307.78,573.47 307.78,994.36l0 78.92c0,35.07 -11.4,63.13 -34.2,84.18 -22.8,21.04 -51.73,31.57 -86.81,31.57l-1872.97 0 0 52.61c7.01,164.85 44.72,318.3 113.11,460.35 68.4,142.05 163.97,256.04 286.73,341.98 122.77,85.93 266.57,128.89 431.42,128.89 192.91,0 349.87,-37.7 470.88,-113.11 121,-75.41 207.81,-151.7 260.42,-228.86 31.57,-42.09 55.25,-68.4 71.03,-78.92 15.78,-10.52 44.72,-15.78 86.81,-15.78l84.18 0c31.56,0 57.87,8.77 78.91,26.3 21.05,17.54 31.57,40.34 31.57,68.4 0,73.65 -46.47,162.22 -139.42,265.69 -92.95,103.47 -221.85,192.91 -386.7,268.32 -164.85,75.41 -350.74,113.11 -557.68,113.11zm841.79 -1583.61l0 -21.05c0,-270.07 -76.29,-492.79 -228.86,-668.16 -152.58,-175.38 -356.89,-263.06 -612.93,-263.06 -256.04,0 -458.6,87.68 -607.66,263.06 -149.07,175.37 -223.6,398.09 -223.6,668.16l0 21.05 1673.05 0zm1136.41 1531c-35.07,0 -63.13,-10.52 -84.18,-31.57 -21.04,-21.04 -31.56,-49.1 -31.56,-84.18l0 -3503.93c0,-35.08 10.52,-63.14 31.56,-84.18 21.05,-21.05 49.11,-31.57 84.18,-31.57l89.44 0c35.08,0 63.14,10.52 84.18,31.57 21.04,21.04 31.57,49.1 31.57,84.18l0 3503.93c0,35.08 -10.53,63.14 -31.57,84.18 -21.04,21.05 -49.1,31.57 -84.18,31.57l-89.44 0zm2051.85 52.61c-378.8,0 -658.52,-123.64 -839.15,-370.91 -180.64,-247.28 -276.21,-548.04 -286.74,-902.29l-5.26 -147.31 5.26 -147.32c10.53,-354.25 106.1,-655.01 286.74,-902.29 180.63,-247.27 460.35,-370.91 839.15,-370.91 382.32,0 676.94,138.54 883.88,415.63l0 -1246.89c0,-35.08 10.52,-63.14 31.57,-84.18 21.04,-21.05 49.1,-31.57 84.18,-31.57l89.44 0c35.07,0 63.13,10.52 84.18,31.57 21.04,21.04 31.56,49.1 31.56,84.18l0 3503.93c0,35.08 -10.52,63.14 -31.56,84.18 -21.05,21.05 -49.11,31.57 -84.18,31.57l-89.44 0c-35.08,0 -63.14,-10.52 -84.18,-31.57 -21.05,-21.04 -31.57,-49.1 -31.57,-84.18l0 -247.27c-203.43,277.09 -498.06,415.63 -883.88,415.63zm31.57 -305.15c277.09,0 485.78,-92.07 626.08,-276.21 140.3,-184.14 215.71,-400.72 226.23,-649.75 3.51,-35.08 5.26,-103.47 5.26,-205.19 0,-101.71 -1.75,-170.11 -5.26,-205.18 -3.51,-150.82 -36.83,-293.75 -99.96,-428.79 -63.14,-135.04 -157.84,-246.4 -284.1,-334.08 -126.27,-87.69 -282.35,-131.53 -468.25,-131.53 -284.1,0 -491.92,90.31 -623.45,270.95 -131.53,180.63 -202.55,413 -213.07,697.1l-5.27 147.32c0,326.19 63.14,593.63 189.41,802.32 126.26,208.7 343.73,313.04 652.38,313.04zm3072.53 305.15c-364.78,0 -648,-111.36 -849.68,-334.08 -201.68,-222.73 -307.78,-511.21 -318.3,-865.47l-5.26 -220.96 5.26 -220.97c10.52,-354.26 116.62,-642.74 318.3,-865.47 201.68,-222.72 484.9,-334.08 849.68,-334.08 364.77,0 648,111.36 849.68,334.08 201.67,222.73 307.77,511.21 318.3,865.47 3.5,35.07 5.26,108.73 5.26,220.97 0,112.23 -1.76,185.89 -5.26,220.96 -10.53,354.26 -116.63,642.74 -318.3,865.47 -201.68,222.72 -484.91,334.08 -849.68,334.08zm0 -305.15c249.03,0 449.83,-79.79 602.4,-239.38 152.57,-159.59 234.12,-386.7 244.64,-681.32 3.51,-35.08 5.27,-99.96 5.27,-194.66 0,-94.71 -1.76,-159.59 -5.27,-194.67 -10.52,-294.62 -92.07,-521.73 -244.64,-681.32 -152.57,-159.59 -353.37,-239.38 -602.4,-239.38 -249.03,0 -449.83,79.79 -602.41,239.38 -152.57,159.59 -234.12,386.7 -244.64,681.32l-5.26 194.67 5.26 194.66c10.52,294.62 92.07,521.73 244.64,681.32 152.58,159.59 353.38,239.38 602.41,239.38zm2009.76 252.54c-35.07,0 -63.13,-10.52 -84.18,-31.57 -21.04,-21.04 -31.57,-49.1 -31.57,-84.18l0 -2504.31c0,-35.08 10.53,-63.14 31.57,-84.18 21.05,-21.05 49.11,-31.57 84.18,-31.57l89.44 0c35.07,0 63.13,10.52 84.18,31.57 21.04,21.04 31.57,49.1 31.57,84.18l0 184.14c91.19,-115.75 197.29,-203.43 318.3,-263.06 121,-59.63 265.69,-89.44 434.04,-89.44 392.84,0 673.43,164.85 841.79,494.55 84.18,-150.82 204.31,-270.95 360.39,-360.39 156.08,-89.44 334.09,-134.16 534.01,-134.16 291.12,0 527.87,99.09 710.26,297.26 182.38,198.17 273.58,479.64 273.58,844.41l0 1531c0,35.08 -10.52,63.14 -31.57,84.18 -21.04,21.05 -49.1,31.57 -84.18,31.57l-89.44 0c-35.07,0 -63.13,-10.52 -84.18,-31.57 -21.04,-21.04 -31.56,-49.1 -31.56,-84.18l0 -1478.38c0,-319.18 -65.77,-547.17 -197.3,-683.96 -131.53,-136.79 -304.27,-205.18 -518.22,-205.18 -189.4,0 -353.38,69.27 -491.92,207.81 -138.55,138.55 -207.82,365.66 -207.82,681.33l0 1478.38c0,35.08 -10.52,63.14 -31.56,84.18 -21.05,21.05 -49.11,31.57 -84.18,31.57l-89.44 0c-35.08,0 -63.14,-10.52 -84.18,-31.57 -21.05,-21.04 -31.57,-49.1 -31.57,-84.18l0 -1478.38c0,-315.67 -68.39,-542.78 -205.18,-681.33 -136.8,-138.54 -306.91,-207.81 -510.34,-207.81 -189.4,0 -353.37,69.27 -491.92,207.81 -138.54,138.55 -207.81,363.9 -207.81,676.06l0 1483.65c0,35.08 -10.53,63.14 -31.57,84.18 -21.05,21.05 -49.11,31.57 -84.18,31.57l-89.44 0z"/>
 </g>
</svg>
